<svg xmlns="http://www.w3.org/2000/svg" viewBox="0 0 128 128" width="128" height="128">
  <defs>
    <linearGradient id="bgGradient" x1="0%" y1="0%" x2="100%" y2="100%">
      <stop offset="0%" style="stop-color:#4f46e5;stop-opacity:1" />
      <stop offset="100%" style="stop-color:#3b82f6;stop-opacity:1" />
    </linearGradient>
    <linearGradient id="rocketGradient" x1="0%" y1="0%" x2="100%" y2="100%">
      <stop offset="0%" style="stop-color:#ffffff;stop-opacity:1" />
      <stop offset="100%" style="stop-color:#f9a8d4;stop-opacity:1" />
    </linearGradient>
  </defs>

  <!-- Rounded square background with gradient -->
  <rect x="0" y="0" width="128" height="128" rx="24" ry="24" fill="url(#bgGradient)"/>

  <!-- Rocket icon -->
  <g transform="translate(32, 28)">
    <!-- Rocket body -->
    <path d="M 32 4 L 40 12 L 40 52 L 36 60 L 28 60 L 24 52 L 24 12 Z" fill="url(#rocketGradient)" stroke="#ffffff" stroke-width="2" stroke-linejoin="round"/>

    <!-- Rocket window -->
    <circle cx="32" cy="24" r="6" fill="#4f46e5" opacity="0.3"/>

    <!-- Left flame -->
    <path d="M 24 60 L 20 68 L 24 64 Z" fill="#f9a8d4"/>

    <!-- Center flame -->
    <path d="M 28 60 L 32 72 L 36 60 Z" fill="#fbbf24"/>

    <!-- Right flame -->
    <path d="M 40 60 L 44 68 L 40 64 Z" fill="#f9a8d4"/>

    <!-- Left wing -->
    <path d="M 24 36 L 12 48 L 16 52 L 24 48 Z" fill="#ffffff" opacity="0.9"/>

    <!-- Right wing -->
    <path d="M 40 36 L 52 48 L 48 52 L 40 48 Z" fill="#ffffff" opacity="0.9"/>
  </g>
</svg>
