<svg xmlns="http://www.w3.org/2000/svg" viewBox="0 0 128 128" width="128" height="128">
  <!-- White rounded square background -->
  <rect x="0" y="0" width="128" height="128" rx="24" ry="24" fill="#ffffff"/>

  <!-- Rocket icon in indigo (lucide-react Rocket) -->
  <g transform="translate(39, 39) scale(2.08)">
    <path d="M4.5 16.5c-1.5 1.25-2 5-2 5s3.75-.5 5-2c.625-.75 1.125-1.625 1.5-2.5"
          stroke="#4f46e5"
          stroke-width="2"
          stroke-linecap="round"
          stroke-linejoin="round"
          fill="none"/>
    <path d="m12 15-3-3a22 22 0 0 1 2-3.95A12.88 12.88 0 0 1 22 2c0 2.72-.78 7.5-6 11a22.35 22.35 0 0 1-4 2z"
          stroke="#4f46e5"
          stroke-width="2"
          stroke-linecap="round"
          stroke-linejoin="round"
          fill="#4f46e5"/>
    <path d="M9 12H4s.55-3.03 2-4c1.62-1.08 5 0 5 0"
          stroke="#4f46e5"
          stroke-width="2"
          stroke-linecap="round"
          stroke-linejoin="round"
          fill="none"/>
    <path d="M12 15v5s3.03-.55 4-2c1.08-1.62 0-5 0-5"
          stroke="#4f46e5"
          stroke-width="2"
          stroke-linecap="round"
          stroke-linejoin="round"
          fill="none"/>
    <circle cx="16" cy="8" r="1.5" fill="#ffffff"/>
  </g>
</svg>
